<svg
   viewBox="-420 0 657.9884 372.66071">
  <path
     d="m -48.1046,58.446 c 0,32.294 -26.21,58.447 -58.447,58.447 -32.293,0 -58.503,-26.153 -58.503,-58.447 0,-32.293 26.21,-58.446 58.503,-58.446 32.237,0 58.447,26.153 58.447,58.447 z"
     style="fill:var(--white);"
   />
  <path
     d="m -106.5506,2.899 c 30.815,0 55.83,24.732 55.83,55.547 0,30.816 -25.015,55.547 -55.83,55.547 -30.815,0 -55.888,-24.731 -55.888,-55.547 0,-30.815 25.073,-55.547 55.888,-55.547 z"
     style="fill:var(--white);"
   />
  <path
     d="m -106.5506,21.264 c 20.524,0 37.182,16.658 37.182,37.182 0,20.525 -16.658,37.183 -37.182,37.183 -20.581,0 -37.24,-16.658 -37.24,-37.183 0,-20.524 16.659,-37.182 37.24,-37.182 z"
     style="fill:var(--white);"
  />
    <path
     d="m -106.5506,39.855 c 10.233,0 18.591,8.3 18.591,18.591 0,10.291 -8.358,18.592 -18.591,18.592 -10.29,0 -18.649,-8.3 -18.649,-18.591 0,-10.291 8.358,-18.592 18.649,-18.592 z"
     style="fill:var(--white);"
  />
  <path
     d="M 160.5234,195.615 V 181.48 c 3.186,1.228 7.088,1.876 10.774,1.876 5.23,0 9.722,-0.74 13.873,-1.82 v 12.736 c -3.639,1.194 -10.007,2.104 -15.75,2.104 -2.839,0 -5.868,-0.23 -8.897,-0.761 z m 0,-52.168 V 129.21 a 41.344,41.344 0 0 1 7.306,-0.662 c 5.743,0 10.348,0.682 15.806,1.99 v 13.304 c -5.515,-1.421 -9.495,-1.876 -14.1,-1.876 -3.373,0 -6.397,0.513 -9.012,1.481 z m 0,-46.283 v -12.28 h 7.42 V 62.199 l -7.42,11.343 V 51.236 l 2.303,-3.365 h 19.785 v 65.382 h -14.668 v -16.09 z m 49.606,3.526 V 47.872 h -14.67 v 65.382 h 36.615 l 5.23,-12.564 z m -0.057,81.87 v -14.441 h 17.739 v -12.508 h -17.739 v -13.305 h 22.969 l 4.947,-12.622 h -42.584 v 65.44 h 40.082 V 182.559 Z M 160.5234,51.236 V 73.54 l -7.42,11.343 h 7.42 v 12.28 h -15.607 l -10.404,16.09 h -2.643 V 93.108 Z m 0,77.973 v 14.237 c -3.16,1.17 -5.724,3.003 -7.59,5.398 -3.07,3.866 -4.378,8.585 -4.378,13.36 0,7.847 3.298,14.271 8.87,17.74 0.912,0.583 1.96,1.096 3.098,1.535 v 14.135 c -5.885,-1.032 -11.765,-3.2 -16.232,-7.029 -6.822,-5.97 -11.03,-15.52 -11.03,-26.323 0,-9.381 3.355,-18.25 9.609,-24.505 4.752,-4.67 11.247,-7.392 17.653,-8.548 z m -28.654,-60.8 13.786,-20.538 h -13.786 z m 0,-20.538 v 20.537 l -29.537,43.999 V 48.65 l 8.187,28.047 18.592,-28.825 z m 0,45.236 -13.788,20.146 h 13.787 z m -29.537,83.338 v -15.848 c 2.361,-0.161 4.343,-0.62 5.97,-1.69 2.274,-1.478 3.923,-4.15 3.923,-7.732 0,-3.013 -1.421,-5.515 -3.752,-6.993 -1.729,-1.124 -3.917,-1.656 -6.14,-1.847 v -12.58 c 4.925,0.214 8.774,0.933 12.166,2.374 7.96,3.354 12.28,10.006 12.28,18.99 0,6.538 -3.41,15.862 -13.644,18.648 5.856,5.23 15.01,20.126 17.056,23.537 l 1.08,1.763 h -17 l -0.34,-0.625 c -3.047,-5.767 -7.394,-13.459 -11.599,-17.997 z m 0,-127.796 v 63.758 l -0.568,0.846 h -16.431 l 15.35,-22.571 -13.815,-42.811 h 15.237 z m 0,81.106 v 12.58 a 24.595,24.595 0 0 0 -2.103,-0.086 h -7.79 v 18.42 h 7.449 c 0.856,0 1.67,-0.02 2.444,-0.072 v 15.848 c -0.19,-0.205 -0.38,-0.403 -0.568,-0.595 -2.275,-2.274 -4.89,-3.298 -7.846,-3.298 h -1.478 v 22.515 h -14.669 v -65.383 h 21.093 c 1.215,0 2.368,0.023 3.468,0.071 z m -49.634,63.617 v -19.385 c 1.444,-3.162 2.218,-7.025 2.218,-11.44 0,-4.417 -0.773,-8.287 -2.218,-11.458 v -19.442 c 10.849,5.02 17.284,16.07 17.284,30.9 0,14.556 -6.551,25.692 -17.284,30.825 z m 0,-78.812 v -13.134 l 0.114,0.001 c 10.348,0 16.715,-8.187 16.715,-20.809 0,-12.678 -6.367,-20.865 -16.715,-20.865 l -0.114,10e-4 V 46.736 h 0.114 c 19.33,0 31.725,13.303 31.725,33.885 0,20.297 -12.678,33.942 -31.725,33.942 z m 0,-67.826 v 13.02 c -10.394,0.06 -16.829,8.232 -16.829,20.865 0,12.575 6.435,20.748 16.829,20.807 v 13.134 c -19.097,-0.054 -31.895,-13.685 -31.895,-33.941 -0.057,-10.632 3.24,-19.388 9.495,-25.471 5.548,-5.492 13.296,-8.39 22.4,-8.414 z m 0,84.913 v 19.442 c -2.702,-5.93 -7.754,-9.409 -14.498,-9.409 -10.404,0 -16.942,8.187 -16.942,20.866 0,12.679 6.538,20.809 16.942,20.809 6.744,0 11.796,-3.454 14.498,-9.368 v 19.385 c -4.231,2.025 -9.112,3.116 -14.498,3.116 -15.117,0 -26.316,-8.546 -30.332,-22.171 v -24.004 c 1.54,-5.219 4.165,-9.684 7.818,-13.238 5.628,-5.458 13.418,-8.414 22.514,-8.414 5.419,0 10.29,1.04 14.498,2.986 z m -44.83,1.166 1.62,-3.129 h -1.62 z m 0,-19.56 V 97.018 c 4.232,5.878 8.204,12.345 9.467,14.416 l 1.08,1.82 z m 0,-29.443 V 54.256 c 3.96,3.665 6.055,8.778 6.055,14.993 0,4.572 -1.64,10.455 -6.055,14.562 z m 0,-29.555 V 83.81 c -1.954,1.818 -4.45,3.288 -7.59,4.143 2.241,2.002 4.966,5.42 7.59,9.065 v 16.235 h -6.453 l -0.341,-0.682 c -3.046,-5.712 -7.394,-13.4 -11.598,-17.989 V 78.776 c 2.361,-0.174 4.343,-0.654 5.97,-1.681 2.33,-1.535 3.922,-4.207 3.922,-7.79 0,-2.956 -1.42,-5.514 -3.752,-6.992 -1.734,-1.128 -3.899,-1.627 -6.14,-1.8 V 47.941 c 4.953,0.214 8.77,0.933 12.167,2.375 2.417,1.019 4.498,2.342 6.225,3.94 z m 0,75.43 v 3.128 l -4.917,9.493 h -13.475 v -12.622 z m 0,20.628 v 24.004 c -1.059,-3.592 -1.62,-7.536 -1.62,-11.77 -0.024,-4.422 0.524,-8.519 1.62,-12.234 z m -18.392,18.373 v -12.508 h 8.073 v 12.508 z m -63.961,-9.779 c -1.633,1.074 -3.623,1.532 -5.97,1.69 v 15.841 c 4.256,4.538 8.605,12.234 11.598,18.004 l 0.398,0.625 h 17 l -1.137,-1.763 c -1.99,-3.41 -11.2,-18.307 -17.057,-23.537 10.234,-2.786 13.702,-12.11 13.702,-18.649 0,-8.983 -4.32,-15.635 -12.337,-18.99 -3.352,-1.442 -7.2,-2.16 -12.167,-2.374 v 12.58 c 2.244,0.188 4.419,0.72 6.197,1.848 2.274,1.478 3.696,3.98 3.696,6.993 0,3.582 -1.592,6.254 -3.923,7.732 z m 63.96,-110.967 v 12.572 a 27.381,27.381 0 0 0 -2.102,-0.077 h -7.79 v 18.421 h 7.448 c 0.857,0 1.671,-0.024 2.445,-0.081 v 15.807 c -0.19,-0.207 -0.38,-0.408 -0.568,-0.602 -2.275,-2.218 -4.89,-3.241 -7.846,-3.241 h -1.478 v 22.514 h -14.67 V 47.872 h 21.094 c 1.217,0 2.37,0.022 3.468,0.07 z m 0,81.744 v 12.622 h -9.891 v 13.872 h 9.892 v 12.508 h -9.892 v 26.438 h -14.67 v -65.44 z m -69.93,30.914 c -0.758,0.052 -1.555,0.072 -2.388,0.072 h -7.505 v -18.421 h 7.79 c 0.7,0 1.405,0.025 2.103,0.084 v -12.577 a 81.103,81.103 0 0 0 -3.468,-0.07 h -21.037 v 65.383 h 14.612 v -22.515 h 1.535 c 2.9,0 5.572,1.024 7.79,3.298 0.189,0.19 0.378,0.386 0.568,0.588 z m -86.788,18.436 v -12.338 h 7.42 v -22.628 l -7.42,11.314 v -22.334 l 2.302,-3.364 h 19.785 v 65.383 h -14.668 v -16.033 z m 34.311,-49.35 v 65.383 h 14.669 v -65.383 z m -34.311,3.364 v 22.334 l -7.42,11.314 h 7.42 v 12.338 h -15.607 l -10.405,16.033 h -16.43 z"
     style="fill:var(--white);"
   />
  <path
     d="m -3.434,295.35671 v -15.227 c 10.958,-3.37 17.651,-12.538 17.651,-27.959 0,-13.994 -6.569,-22.7 -17.651,-25.607 v -15.123 c 10.123,1.12 17.521,3.928 23.513,8.423 8.733,6.486 14.221,16.715 14.221,31.683 0,16.092 -5.863,27.194 -13.846,34.054 -5.988,4.976 -14.144,8.193 -23.888,9.756 z m 100.229,-50.795 H 65.859 v -17.464 h 32.807 v -15.592 H 46.899 v 84.074 h 53.513 v -15.592 H 65.859 v -19.958 h 30.936 z m 33.55499,51.018 h 18.96 v -68.107 h 22.952 v -15.967 h -64.615 v 15.967 h 22.703 z m 47.65,-3.991 c 4.74,2.619 14.22,5.26 23.825,5.26 23.077,0 33.805,-11.996 33.805,-26.092 0,-11.85 -6.86,-19.584 -21.705,-25.073 -10.977,-4.116 -15.593,-6.486 -15.593,-11.85 0,-4.24 3.993,-8.108 12.225,-8.108 8.108,0 14.22,2.37 17.464,3.992 l 4.24,-15.219 c -4.989,-2.37 -11.85,-4.24 -21.454,-4.24 -19.71,0 -31.81,10.852 -31.81,25.197 0,12.225 9.232,19.958 23.202,24.948 10.104,3.492 14.096,6.486 14.096,11.725 0,5.489 -4.616,9.106 -13.347,9.106 -8.108,0 -16.091,-2.62 -21.081,-5.239 z M -3.434,211.43971 v 15.123 c -2.748,-0.721 -5.772,-1.087 -9.043,-1.087 -4.117,0 -6.986,0.374 -8.607,0.748 v 55.01 c 1.621,0.375 4.366,0.375 6.61,0.375 4.026,0.028 7.728,-0.461 11.04,-1.48 v 15.227 c -4.667,0.748 -9.698,1.117 -15.03,1.117 -9.855,0 -16.966,-0.623 -21.58,-1.268 v -82.452 c 6.985,-1.247 16.09,-1.87 25.57,-1.87 4.014,0 7.678,0.186 11.04,0.558 z m -86.943,62.56 v -14.22 h 9.293 l -5.239,-17.839 c -1.349,-4.906 -2.819,-11.14 -4.054,-15.972 v -14.463 h 12.91 l 26.196,84.074 h -20.458 l -6.486,-21.58 z m 0,-62.495 v 14.464 l -0.062,-0.244 h -0.374 c -1.123,4.99 -2.495,11.351 -3.742,16.216 l -5.115,17.838 h 9.293 v 14.22 h -12.037 l -5.863,21.58 h -19.709 l 25.697,-84.074 z m -176.007,51.733 v -14.84 c 7.159,-1.115 11.289,-5.48 11.289,-11.757 0,-6.757 -4.177,-10.646 -11.289,-11.402 v -14.253 c 9.956,0.45 17.203,2.418 22.39,6.632 5.115,3.992 7.86,9.834 7.86,17.526 0,10.561 -7.61,17.9 -14.845,20.52 v 0.374 c 5.864,2.37 9.106,7.859 11.227,15.634 2.62,9.626 5.115,20.645 6.736,23.908 h -19.46 c -1.247,-2.515 -3.367,-9.272 -5.738,-19.667 -1.705,-7.66 -4.057,-11.228 -8.17,-12.674 z m 127.92,15.002 c -3.867,1.622 -10.104,2.745 -15.966,2.745 -16.84,0 -26.82,-10.603 -26.82,-27.318 0,-18.711 11.727,-27.817 26.695,-27.817 6.86,0 12.224,1.497 15.967,3.118 l 3.991,-15.093 c -3.368,-1.621 -10.852,-3.618 -20.706,-3.618 -25.447,0 -45.904,15.842 -45.904,44.408 0,23.95 14.968,42.183 44.033,42.183 10.104,0 18.086,-2.017 21.455,-3.639 z m -231.765,-4.24 6.486,21.58 h 20.457 l -26.195,-84.075 h -12.91 v 14.464 c 1.234,4.832 2.704,11.066 4.053,15.972 l 5.24,17.838 h -9.294 v 14.22 z m 103.845,-63.015 v 14.253 a 25.376,25.376 0 0 0 -2.682,-0.136 c -4.615,0 -7.235,0.249 -8.607,0.623 v 22.952 h 7.485 c 1.348,0 2.617,-0.096 3.804,-0.28 v 14.841 c -1.603,-0.563 -3.472,-0.804 -5.676,-0.84 h -5.613 v 33.181 h -18.836 v -82.826 c 6.113,-1.122 15.094,-1.87 25.322,-1.87 1.668,0 3.268,0.034 4.803,0.103 z m -65.55,0.52 v 84.074 h 18.96 v -84.073 z m -50.458,0 h -11.912 l -25.696,84.074 h 19.708 l 5.863,-21.58 h 12.037 v -14.22 h -9.293 l 5.115,-17.838 c 1.247,-4.865 2.62,-11.226 3.742,-16.216 h 0.374 l 0.062,0.244 z"
     style="fill:var(--white);"
   />
  <path
     d="m 174.51099,357.78671 v -8.2 h 0.112 c 4.507,0 7.287,-4.431 7.287,-11.041 0,-5.409 -2.104,-10.967 -7.287,-10.967 l -0.112,0.002 v -8.185 c 0.161,-0.003 0.324,-0.005 0.487,-0.005 11.193,0 18.704,7.737 18.704,18.854 0,13.32 -9.466,19.494 -19.191,19.542 z m 26.252,-0.838 h 11.418 v -21.183 c 0,-1.051 0.075,-2.103 0.376,-2.854 0.826,-2.103 2.704,-4.282 5.859,-4.282 4.131,0 5.784,3.23 5.784,7.963 v 20.356 h 11.417 v -21.708 c 0,-10.817 -5.634,-15.85 -13.145,-15.85 -6.16,0 -9.84,3.53 -11.343,5.934 h -0.225 l -0.526,-5.107 h -9.915 c 0.15,3.304 0.3,7.136 0.3,11.718 z m -26.252,-37.553 v 8.185 c -5.325,0.077 -7.4,5.595 -7.4,11.04 0,6.218 2.616,10.94 7.4,10.966 v 8.2 h -0.188 c -10.742,0 -19.004,-7.073 -19.004,-18.94 0,-11.706 7.598,-19.246 19.192,-19.451 z m -90.10199,37.696 v -7.41 c 2.42,-0.327 4.432,-2.056 5.108,-4.15 0.15,-0.601 0.225,-1.277 0.225,-1.954 v -3.98 c -1.96,0 -3.775,0.152 -5.333,0.507 v -7.4 a 48.354,48.354 0 0 1 4.958,-0.244 v -0.45 c 0,-1.734 -0.83,-4.119 -4.958,-4.632 v -7.986 l 0.3,-0.001 c 12.245,0 16.075,7.21 16.075,15.85 v 12.844 c 0,3.455 0.15,6.835 0.602,8.863 H 91.093 l -0.676,-3.68 h -0.225 c -1.476,1.799 -3.462,3.092 -5.784,3.823 z m 26.44099,-43.785 v 6.91 h -4.883 v 8.413 h 4.883 v 15.024 c 0,5.183 1.052,8.713 3.155,10.892 1.878,1.877 4.957,3.167 8.638,3.167 3.155,0 5.935,-0.451 7.361,-0.99 l -0.075,-8.638 c -1.051,0.226 -1.802,0.3 -3.38,0.3 -3.38,0 -4.507,-2.027 -4.507,-6.46 v -13.295 h 8.187 v -8.412 h -8.187 v -9.991 z m 37.407,43.642 v -36.731 h -11.417 v 36.73 z m -5.708,-41.238 c 3.756,0 6.084,-2.554 6.084,-5.71 -0.075,-3.23 -2.328,-5.708 -6.009,-5.708 -3.68,0 -6.084,2.479 -6.084,5.709 0,3.155 2.328,5.709 5.934,5.709 z m -58.13999,3.682 v 7.986 c -0.522,-0.065 -1.095,-0.1 -1.728,-0.1 -3.755,0 -7.736,1.276 -10.14,2.704 l -2.103,-7.287 c 2.515,-1.405 7.435,-3.248 13.971,-3.303 z m 0,13.312 v 7.4 c -3.218,0.735 -5.333,2.34 -5.333,5.276 0,2.93 1.953,4.357 4.507,4.357 0.28,0 0.555,-0.02 0.826,-0.056 v 7.41 c -1.459,0.459 -3.051,0.696 -4.732,0.696 -7.436,0 -11.868,-5.421 -11.868,-11.28 0,-8.266 6.43,-12.752 16.6,-13.803 z m -66.102,24.94 v -8.827 a 16.6,16.6 0 0 0 3.681,0.394 c 3.906,0 7.06,-0.526 10.14,-1.577 l 1.503,7.737 c -3.756,1.577 -8.338,2.34 -13.296,2.34 -0.693,0 -1.368,-0.023 -2.028,-0.067 z m 0,-15.419 v -7.812 h 6.76 c 0,-2.779 -1.201,-7.436 -6.384,-7.436 -0.127,0 -0.252,0.003 -0.376,0.009 v -7.574 c 0.321,-0.014 0.646,-0.022 0.977,-0.022 11.868,0 16.375,9.239 16.375,18.328 0,1.953 -0.225,3.68 -0.375,4.507 z m 24.188,14.723 h 11.417 v -18.554 c 0,-0.976 0.075,-1.802 0.226,-2.554 0.75,-3.605 3.605,-5.784 7.812,-5.784 1.276,0 2.178,0.15 3.08,0.301 v -10.741 c -0.827,-0.15 -1.353,-0.226 -2.404,-0.226 -3.606,0 -8.038,2.253 -9.916,7.662 h -0.3 l -0.45,-6.836 h -9.766 c 0.225,3.155 0.3,6.686 0.3,12.094 z m -24.188,-37.535 v 7.573 c -4.607,0.221 -6.468,4.501 -6.76,7.427 h 6.76 v 7.812 h -6.685 c 0.285,3.594 3.04,5.758 6.685,6.592 v 8.827 c -11.21,-0.75 -17.577,-7.795 -17.577,-18.648 0,-9.072 5.56,-19.069 17.577,-19.583 z m -83.678,38.231 v -8.827 c 1.154,0.263 2.398,0.394 3.68,0.394 3.907,0 7.06,-0.526 10.141,-1.577 l 1.502,7.737 c -3.756,1.577 -8.337,2.34 -13.296,2.34 -0.692,0 -1.368,-0.023 -2.027,-0.067 z m 0,-15.419 v -7.812 h 6.76 c 0,-2.779 -1.202,-7.436 -6.385,-7.436 -0.128,0 -0.252,0.003 -0.375,0.009 v -7.574 c 0.32,-0.014 0.646,-0.022 0.976,-0.022 11.869,0 16.375,9.239 16.375,18.328 0,1.953 -0.225,3.68 -0.375,4.507 z m 24.187,14.723 h 11.417 v -21.183 c 0,-1.051 0.075,-2.103 0.377,-2.854 0.826,-2.103 2.704,-4.282 5.858,-4.282 4.131,0 5.784,3.23 5.784,7.963 v 20.356 H -6.33 v -21.708 c 0,-10.817 -5.634,-15.85 -13.146,-15.85 -6.16,0 -9.84,3.53 -11.342,5.934 h -0.225 l -0.526,-5.108 h -9.915 c 0.15,3.305 0.3,7.136 0.3,11.719 z m -24.187,-37.535 v 7.573 c -4.608,0.221 -6.468,4.501 -6.76,7.427 h 6.76 v 7.812 h -6.686 c 0.285,3.594 3.04,5.758 6.686,6.592 v 8.827 c -11.212,-0.75 -17.578,-7.795 -17.578,-18.648 0,-9.072 5.56,-19.069 17.578,-19.583 z m -43.003,53.188 v -8.87 c 4.162,-0.78 7.097,-3.714 7.097,-9.487 v -2.329 h -0.15 c -1.643,2.267 -4.056,3.806 -6.947,4.426 v -8.122 c 0.16,0.01 0.322,0.016 0.488,0.016 3.004,0 5.333,-1.953 6.084,-4.582 0.3,-0.902 0.376,-2.104 0.376,-3.08 v -5.408 c 0,-0.677 -0.075,-1.428 -0.225,-2.104 -0.827,-3.004 -3.005,-5.032 -6.16,-5.032 -0.19,0 -0.378,0.008 -0.563,0.023 v -8.557 c 3.978,0.468 6.587,2.467 8.225,5.153 h 0.15 l 0.375,-4.432 h 9.916 c -0.15,2.404 -0.301,5.484 -0.301,10.967 v 20.432 c 0,7.073 -1.427,12.857 -5.633,16.538 -3.457,3 -8.045,4.187 -12.732,4.448 z m 0,-53.106 v 8.557 c -3.935,0.322 -6.949,4.034 -6.949,10.417 0,5.292 2.52,9.465 6.949,9.75 v 8.122 c -0.942,0.202 -1.934,0.306 -2.967,0.306 -9.09,0 -15.55,-7.36 -15.55,-17.877 0,-11.868 7.587,-19.38 16.676,-19.38 0.644,0 1.257,0.036 1.84,0.105 z m 0,44.236 v 8.87 c -0.713,0.04 -1.428,0.059 -2.14,0.059 -4.884,0 -9.916,-0.977 -13.222,-2.78 l 2.254,-8.713 c 2.328,1.352 6.31,2.78 10.666,2.78 0.85,0 1.666,-0.071 2.442,-0.216 z m -122.402,-6.087 v -8.827 a 16.6,16.6 0 0 0 3.681,0.394 c 3.906,0 7.061,-0.526 10.14,-1.577 l 1.503,7.737 c -3.755,1.577 -8.338,2.34 -13.295,2.34 -0.694,0 -1.368,-0.023 -2.029,-0.067 z m 0,-15.419 v -7.812 h 6.76 c 0,-2.779 -1.2,-7.436 -6.384,-7.436 -0.128,0 -0.253,0.003 -0.376,0.009 v -7.574 c 0.321,-0.014 0.647,-0.022 0.977,-0.022 11.868,0 16.375,9.239 16.375,18.328 0,1.953 -0.225,3.68 -0.375,4.507 z m 19.23,-22.009 12.169,17.953 -12.47,18.779 h 12.545 l 3.455,-6.61 c 0.901,-1.803 1.878,-3.606 2.78,-5.634 h 0.225 c 0.827,1.953 1.803,3.831 2.854,5.634 l 3.68,6.61 h 12.92 l -12.243,-19.23 12.094,-17.502 h -12.394 l -3.23,5.934 a 201.75,201.75 0 0 0 -2.854,5.71 h -0.151 a 440.749,440.749 0 0 0 -3.005,-5.484 l -3.605,-6.16 z m 45.595,-6.91 v 6.91 h -4.882 v 8.413 h 4.882 v 15.024 c 0,5.182 1.051,8.713 3.155,10.892 1.878,1.877 4.957,3.167 8.639,3.167 3.154,0 5.934,-0.451 7.36,-0.99 l -0.075,-8.638 c -1.05,0.226 -1.802,0.3 -3.38,0.3 -3.38,0 -4.507,-2.027 -4.507,-6.46 v -13.295 h 8.188 v -8.412 h -8.188 v -9.991 z m -64.825,6.107 v 7.573 c -4.607,0.221 -6.468,4.501 -6.76,7.427 h 6.76 v 7.812 h -6.685 c 0.285,3.594 3.04,5.758 6.685,6.592 v 8.827 c -11.21,-0.75 -17.577,-7.795 -17.577,-18.648 0,-9.072 5.56,-19.069 17.577,-19.583 z m -98.851,38.231 v -8.827 c 1.154,0.263 2.397,0.394 3.68,0.394 3.906,0 7.06,-0.526 10.141,-1.577 l 1.502,7.737 c -3.756,1.577 -8.338,2.34 -13.296,2.34 -0.692,0 -1.368,-0.023 -2.027,-0.067 z m 0,-15.419 v -7.812 h 6.76 c 0,-2.779 -1.202,-7.436 -6.385,-7.436 -0.128,0 -0.252,0.004 -0.375,0.009 v -7.574 c 0.32,-0.014 0.645,-0.022 0.976,-0.022 11.868,0 16.375,9.239 16.375,18.328 0,1.953 -0.226,3.68 -0.376,4.507 z m 39.36,14.723 h 11.418 v -21.183 c 0,-1.051 0.075,-2.103 0.375,-2.854 0.826,-2.103 2.704,-4.282 5.86,-4.282 4.13,0 5.783,3.23 5.783,7.963 v 20.356 h 11.418 v -21.708 c 0,-10.817 -5.634,-15.85 -13.145,-15.85 -6.16,0 -9.84,3.53 -11.343,5.934 h -0.226 l -0.525,-5.108 h -9.915 c 0.15,3.305 0.3,7.136 0.3,11.719 z m -124.842,-43.642 v 6.91 h -4.883 v 8.413 h 4.883 v 15.024 c 0,5.182 1.051,8.713 3.155,10.892 1.878,1.877 4.958,3.167 8.638,3.167 3.155,0 5.934,-0.451 7.362,-0.99 l -0.075,-8.638 c -1.053,0.226 -1.804,0.3 -3.38,0.3 -3.381,0 -4.508,-2.027 -4.508,-6.46 v -13.295 h 8.188 v -8.412 h -8.188 v -9.991 z m 85.482,6.107 v 7.573 c -4.608,0.221 -6.468,4.501 -6.76,7.427 h 6.76 v 7.812 h -6.686 c 0.285,3.594 3.04,5.758 6.686,6.592 v 8.827 c -11.212,-0.75 -17.578,-7.794 -17.578,-18.648 0,-9.073 5.56,-19.07 17.578,-19.583 z m -59.492,37.535 h 11.418 v -21.783 c 0,-0.827 0.075,-1.803 0.375,-2.48 0.826,-2.103 2.704,-4.056 5.709,-4.056 4.282,0 5.934,3.306 5.934,8.113 v 20.206 h 11.418 v -21.408 c 0,-11.117 -5.559,-16.15 -12.845,-16.15 -2.103,0 -4.207,0.526 -5.934,1.427 a 12.3,12.3 0 0 0 -4.507,3.831 h -0.15 v -21.106 h -11.418 z"
     style="fill:var(--white);"
   />
</svg>