        <svg
            xmlns="http://www.w3.org/2000/svg"
            width="17em"
            height="4em"
            viewBox="90 0 60 290"
        >
            <path
                d="M-252.634 64.74c0 32.294-26.21 58.447-58.447 58.447-32.293 0-58.503-26.153-58.503-58.447 0-32.293 26.21-58.446 58.503-58.446 32.237 0 58.447 26.153 58.447 58.447z"
                style="fill:var(--white);"
            />
            <path
                d="M-311.08 9.193c30.815 0 55.83 24.732 55.83 55.547 0 30.816-25.015 55.547-55.83 55.547-30.815 0-55.888-24.731-55.888-55.547 0-30.815 25.073-55.547 55.888-55.547z"
                style="fill:var(--blue);"
            />
            <path
                d="M-311.08 27.558c20.524 0 37.182 16.658 37.182 37.182 0 20.525-16.658 37.183-37.182 37.183-20.581 0-37.24-16.658-37.24-37.183 0-20.524 16.659-37.182 37.24-37.182z"
            style="fill:var(--white);"
            />
            <path
                d="M-311.08 46.149c10.233 0 18.591 8.3 18.591 18.591s-8.358 18.592-18.591 18.592c-10.29 0-18.649-8.3-18.649-18.591s8.358-18.592 18.649-18.592z"
                style="fill:var(--red);"
            />
            <path
                d="M-44.006 201.909v-14.135c3.186 1.228 7.088 1.876 10.774 1.876 5.23 0 9.722-.74 13.873-1.82v12.736c-3.639 1.194-10.007 2.104-15.75 2.104-2.839 0-5.868-.23-8.897-.761zm0-52.168v-14.237a41.344 41.344 0 017.306-.662c5.743 0 10.348.682 15.806 1.99v13.304c-5.515-1.421-9.495-1.876-14.1-1.876-3.373 0-6.397.513-9.012 1.481zm0-46.283v-12.28h7.42V68.493l-7.42 11.343V57.53l2.303-3.365h19.785v65.382h-14.668v-16.09zM5.6 106.984V54.166H-9.07v65.382h36.615l5.23-12.564zm-.057 81.87v-14.441h17.739v-12.508H5.543V148.6h22.969l4.947-12.622H-9.125v65.44h40.082v-12.565zM-44.006 57.53v22.304l-7.42 11.343h7.42v12.28h-15.607l-10.404 16.09h-2.643V99.402zm0 77.973v14.237c-3.16 1.17-5.724 3.003-7.59 5.398-3.07 3.866-4.378 8.585-4.378 13.36 0 7.847 3.298 14.271 8.87 17.74.912.583 1.96 1.096 3.098 1.535v14.135c-5.885-1.032-11.765-3.2-16.232-7.029-6.822-5.97-11.03-15.52-11.03-26.323 0-9.381 3.355-18.25 9.609-24.505 4.752-4.67 11.247-7.392 17.653-8.548zm-28.654-60.8l13.786-20.538H-72.66zm0-20.538v20.537l-29.537 43.999V54.944l8.187 28.047 18.592-28.825zm0 45.236l-13.788 20.146h13.787zm-29.537 83.338v-15.848c2.361-.161 4.343-.62 5.97-1.69 2.274-1.478 3.923-4.15 3.923-7.732 0-3.013-1.421-5.515-3.752-6.993-1.729-1.124-3.917-1.656-6.14-1.847v-12.58c4.925.214 8.774.933 12.166 2.374 7.96 3.354 12.28 10.006 12.28 18.99 0 6.538-3.41 15.862-13.644 18.648 5.856 5.23 15.01 20.126 17.056 23.537l1.08 1.763h-17l-.34-.625c-3.047-5.767-7.394-13.459-11.599-17.997zm0-127.796v63.758l-.568.846h-16.431l15.35-22.571-13.815-42.811h15.237zm0 81.106v12.58a24.595 24.595 0 00-2.103-.086h-7.79v18.42h7.449c.856 0 1.67-.02 2.444-.072v15.848c-.19-.205-.38-.403-.568-.595-2.275-2.274-4.89-3.298-7.846-3.298h-1.478v22.515h-14.669v-65.383h21.093c1.215 0 2.368.023 3.468.071zm-49.634 63.617v-19.385c1.444-3.162 2.218-7.025 2.218-11.44 0-4.417-.773-8.287-2.218-11.458v-19.442c10.849 5.02 17.284 16.07 17.284 30.9 0 14.556-6.551 25.692-17.284 30.825zm0-78.812V107.72l.114.001c10.348 0 16.715-8.187 16.715-20.809 0-12.678-6.367-20.865-16.715-20.865l-.114.001V53.03h.114c19.33 0 31.725 13.303 31.725 33.885 0 20.297-12.678 33.942-31.725 33.942zm0-67.826v13.02c-10.394.06-16.829 8.232-16.829 20.865 0 12.575 6.435 20.748 16.829 20.807v13.134c-19.097-.054-31.895-13.685-31.895-33.941-.057-10.632 3.24-19.388 9.495-25.471 5.548-5.492 13.296-8.39 22.4-8.414zm0 84.913v19.442c-2.702-5.93-7.754-9.409-14.498-9.409-10.404 0-16.942 8.187-16.942 20.866s6.538 20.809 16.942 20.809c6.744 0 11.796-3.454 14.498-9.368v19.385c-4.231 2.025-9.112 3.116-14.498 3.116-15.117 0-26.316-8.546-30.332-22.171v-24.004c1.54-5.219 4.165-9.684 7.818-13.238 5.628-5.458 13.418-8.414 22.514-8.414 5.419 0 10.29 1.04 14.498 2.986zm-44.83 1.166l1.62-3.129h-1.62zm0-19.56v-16.235c4.232 5.878 8.204 12.345 9.467 14.416l1.08 1.82zm0-29.443V60.55c3.96 3.665 6.055 8.778 6.055 14.993 0 4.572-1.64 10.455-6.055 14.562zm0-29.555v29.555c-1.954 1.818-4.45 3.288-7.59 4.143 2.241 2.002 4.966 5.42 7.59 9.065v16.235h-6.453l-.341-.682c-3.046-5.712-7.394-13.4-11.598-17.989V85.07c2.361-.174 4.343-.654 5.97-1.681 2.33-1.535 3.922-4.207 3.922-7.79 0-2.956-1.42-5.514-3.752-6.992-1.734-1.128-3.899-1.627-6.14-1.8V54.235c4.953.214 8.77.933 12.167 2.375 2.417 1.019 4.498 2.342 6.225 3.94zm0 75.43v3.128l-4.917 9.493h-13.475v-12.622zm0 20.628v24.004c-1.059-3.592-1.62-7.536-1.62-11.77-.024-4.422.524-8.519 1.62-12.234zm-18.392 18.373v-12.508h8.073v12.508zm-63.961-9.779c-1.633 1.074-3.623 1.532-5.97 1.69v15.841c4.256 4.538 8.605 12.234 11.598 18.004l.398.625h17l-1.137-1.763c-1.99-3.41-11.2-18.307-17.057-23.537 10.234-2.786 13.702-12.11 13.702-18.649 0-8.983-4.32-15.635-12.337-18.99-3.352-1.442-7.2-2.16-12.167-2.374v12.58c2.244.188 4.419.72 6.197 1.848 2.274 1.478 3.696 3.98 3.696 6.993 0 3.582-1.592 6.254-3.923 7.732zm63.96-110.967v12.572a27.381 27.381 0 00-2.102-.077h-7.79v18.421h7.448c.857 0 1.671-.024 2.445-.081v15.807c-.19-.207-.38-.408-.568-.602-2.275-2.218-4.89-3.241-7.846-3.241h-1.478v22.514h-14.67V54.166h21.094c1.217 0 2.37.022 3.468.07zm0 81.744v12.622h-9.891v13.872h9.892v12.508h-9.892v26.438h-14.67v-65.44zm-69.93 30.914c-.758.052-1.555.072-2.388.072h-7.505v-18.421h7.79c.7 0 1.405.025 2.103.084V136.05a81.103 81.103 0 00-3.468-.07h-21.037v65.383h14.612v-22.515h1.535c2.9 0 5.572 1.024 7.79 3.298.189.19.378.386.568.588zm-86.788 18.436V172.99h7.42v-22.628l-7.42 11.314v-22.334l2.302-3.364h19.785v65.383h-14.668v-16.033zm34.311-49.35v65.383h14.669v-65.383zm-34.311 3.364v22.334l-7.42 11.314h7.42v12.338h-15.607l-10.405 16.033h-16.43z"
            style="fill:var(--white);"
            />
            <path
                d="M480.713 139.264v-15.227c10.958-3.37 17.651-12.538 17.651-27.959 0-13.994-6.569-22.7-17.651-25.607V55.348c10.123 1.12 17.521 3.928 23.513 8.423 8.733 6.486 14.221 16.715 14.221 31.683 0 16.092-5.863 27.194-13.846 34.054-5.988 4.976-14.144 8.193-23.888 9.756zm100.229-50.795h-30.936V71.005h32.807V55.413h-51.767v84.074h53.513v-15.592h-34.553v-19.958h30.936zm33.555 51.018h18.96V71.38h22.952V55.413h-64.615V71.38h22.703zm47.65-3.991c4.74 2.619 14.22 5.26 23.825 5.26 23.077 0 33.805-11.996 33.805-26.092 0-11.85-6.86-19.584-21.705-25.073-10.977-4.116-15.593-6.486-15.593-11.85 0-4.24 3.993-8.108 12.225-8.108 8.108 0 14.22 2.37 17.464 3.992l4.24-15.219c-4.989-2.37-11.85-4.24-21.454-4.24-19.71 0-31.81 10.852-31.81 25.197 0 12.225 9.232 19.958 23.202 24.948 10.104 3.492 14.096 6.486 14.096 11.725 0 5.489-4.616 9.106-13.347 9.106-8.108 0-16.091-2.62-21.081-5.239zM480.713 55.347v15.123c-2.748-.721-5.772-1.087-9.043-1.087-4.117 0-6.986.374-8.607.748v55.01c1.621.375 4.366.375 6.61.375 4.026.028 7.728-.461 11.04-1.48v15.227c-4.667.748-9.698 1.117-15.03 1.117-9.855 0-16.966-.623-21.58-1.268V56.66c6.985-1.247 16.09-1.87 25.57-1.87 4.014 0 7.678.186 11.04.558zm-86.943 62.56v-14.22h9.293l-5.239-17.839c-1.349-4.906-2.819-11.14-4.054-15.972V55.413h12.91l26.196 84.074h-20.458l-6.486-21.58zm0-62.495v14.464l-.062-.244h-.374c-1.123 4.99-2.495 11.351-3.742 16.216l-5.115 17.838h9.293v14.22h-12.037l-5.863 21.58h-19.709l25.697-84.074zm-176.007 51.733V92.305c7.159-1.115 11.289-5.48 11.289-11.757 0-6.757-4.177-10.646-11.289-11.402V54.893c9.956.45 17.203 2.418 22.39 6.632 5.115 3.992 7.86 9.834 7.86 17.526 0 10.561-7.61 17.9-14.845 20.52v.374c5.864 2.37 9.106 7.859 11.227 15.634 2.62 9.626 5.115 20.645 6.736 23.908h-19.46c-1.247-2.515-3.367-9.272-5.738-19.667-1.705-7.66-4.057-11.228-8.17-12.674zm127.92 15.002c-3.867 1.622-10.104 2.745-15.966 2.745-16.84 0-26.82-10.603-26.82-27.318 0-18.711 11.727-27.817 26.695-27.817 6.86 0 12.224 1.497 15.967 3.118l3.991-15.093c-3.368-1.621-10.852-3.618-20.706-3.618-25.447 0-45.904 15.842-45.904 44.408 0 23.95 14.968 42.183 44.033 42.183 10.104 0 18.086-2.017 21.455-3.639zm-231.765-4.24l6.486 21.58h20.457l-26.195-84.075h-12.91v14.464c1.234 4.832 2.704 11.066 4.053 15.972l5.24 17.838h-9.294v14.22zm103.845-63.015v14.253a25.376 25.376 0 00-2.682-.136c-4.615 0-7.235.249-8.607.623v22.952h7.485c1.348 0 2.617-.096 3.804-.28v14.841c-1.603-.563-3.472-.804-5.676-.84h-5.613v33.181h-18.836V56.66c6.113-1.122 15.094-1.87 25.322-1.87 1.668 0 3.268.034 4.803.103zm-65.55.52v84.074h18.96V55.413zm-50.458 0H89.843l-25.696 84.074h19.708l5.863-21.58h12.037v-14.22h-9.293l5.115-17.838c1.247-4.865 2.62-11.226 3.742-16.216h.374l.062.244z"
                style="fill:var(--red);"
            />
            <path
                d="M658.658 201.694v-8.2H658.77c4.507 0 7.287-4.431 7.287-11.041 0-5.409-2.104-10.967-7.287-10.967l-.112.002v-8.185c.161-.003.324-.005.487-.005 11.193 0 18.704 7.737 18.704 18.854 0 13.32-9.466 19.494-19.191 19.542zm26.252-.838h11.418v-21.183c0-1.051.075-2.103.376-2.854.826-2.103 2.704-4.282 5.859-4.282 4.131 0 5.784 3.23 5.784 7.963v20.356h11.417v-21.708c0-10.817-5.634-15.85-13.145-15.85-6.16 0-9.84 3.53-11.343 5.934h-.225l-.526-5.107h-9.915c.15 3.304.3 7.136.3 11.718zm-26.252-37.553v8.185c-5.325.077-7.4 5.595-7.4 11.04 0 6.218 2.616 10.94 7.4 10.966v8.2h-.188c-10.742 0-19.004-7.073-19.004-18.94 0-11.706 7.598-19.246 19.192-19.451zm-90.102 37.696v-7.41c2.42-.327 4.432-2.056 5.108-4.15.15-.601.225-1.277.225-1.954v-3.98c-1.96 0-3.775.152-5.333.507v-7.4a48.354 48.354 0 014.958-.244v-.45c0-1.734-.83-4.119-4.958-4.632V163.3l.3-.001c12.245 0 16.075 7.21 16.075 15.85v12.844c0 3.455.15 6.835.602 8.863H575.24l-.676-3.68h-.225c-1.476 1.799-3.462 3.092-5.784 3.823zm26.441-43.785v6.91h-4.883v8.413h4.883v15.024c0 5.183 1.052 8.713 3.155 10.892 1.878 1.877 4.957 3.167 8.638 3.167 3.155 0 5.935-.451 7.361-.99l-.075-8.638c-1.051.226-1.802.3-3.38.3-3.38 0-4.507-2.027-4.507-6.46v-13.295h8.187v-8.412h-8.187v-9.991zm37.407 43.642v-36.731h-11.417v36.73zm-5.708-41.238c3.756 0 6.084-2.554 6.084-5.71-.075-3.23-2.328-5.708-6.009-5.708-3.68 0-6.084 2.479-6.084 5.709 0 3.155 2.328 5.709 5.934 5.709zm-58.14 3.682v7.986c-.522-.065-1.095-.1-1.728-.1-3.755 0-7.736 1.276-10.14 2.704l-2.103-7.287c2.515-1.405 7.435-3.248 13.971-3.303zm0 13.312v7.4c-3.218.735-5.333 2.34-5.333 5.276 0 2.93 1.953 4.357 4.507 4.357.28 0 .555-.02.826-.056v7.41c-1.459.459-3.051.696-4.732.696-7.436 0-11.868-5.421-11.868-11.28 0-8.266 6.43-12.752 16.6-13.803zm-66.102 24.94v-8.827a16.6 16.6 0 003.681.394c3.906 0 7.06-.526 10.14-1.577l1.503 7.737c-3.756 1.577-8.338 2.34-13.296 2.34-.693 0-1.368-.023-2.028-.067zm0-15.419v-7.812h6.76c0-2.779-1.201-7.436-6.384-7.436-.127 0-.252.003-.376.009v-7.574c.321-.014.646-.022.977-.022 11.868 0 16.375 9.239 16.375 18.328 0 1.953-.225 3.68-.375 4.507zm24.188 14.723h11.417v-18.554c0-.976.075-1.802.226-2.554.75-3.605 3.605-5.784 7.812-5.784 1.276 0 2.178.15 3.08.301v-10.741c-.827-.15-1.353-.226-2.404-.226-3.606 0-8.038 2.253-9.916 7.662h-.3l-.45-6.836h-9.766c.225 3.155.3 6.686.3 12.094zm-24.188-37.535v7.573c-4.607.221-6.468 4.501-6.76 7.427h6.76v7.812h-6.685c.285 3.594 3.04 5.758 6.685 6.592v8.827c-11.21-.75-17.577-7.795-17.577-18.648 0-9.072 5.56-19.069 17.577-19.583zm-83.678 38.231v-8.827c1.154.263 2.398.394 3.68.394 3.907 0 7.06-.526 10.141-1.577l1.502 7.737c-3.756 1.577-8.337 2.34-13.296 2.34-.692 0-1.368-.023-2.027-.067zm0-15.419v-7.812h6.76c0-2.779-1.202-7.436-6.385-7.436-.128 0-.252.003-.375.009v-7.574c.32-.014.646-.022.976-.022 11.869 0 16.375 9.239 16.375 18.328 0 1.953-.225 3.68-.375 4.507zm24.187 14.723h11.417v-21.183c0-1.051.075-2.103.377-2.854.826-2.103 2.704-4.282 5.858-4.282 4.131 0 5.784 3.23 5.784 7.963v20.356h11.418v-21.708c0-10.817-5.634-15.85-13.146-15.85-6.16 0-9.84 3.53-11.342 5.934h-.225l-.526-5.108h-9.915c.15 3.305.3 7.136.3 11.719zm-24.187-37.535v7.573c-4.608.221-6.468 4.501-6.76 7.427h6.76v7.812h-6.686c.285 3.594 3.04 5.758 6.686 6.592v8.827c-11.212-.75-17.578-7.795-17.578-18.648 0-9.072 5.56-19.069 17.578-19.583zm-43.003 53.188v-8.87c4.162-.78 7.097-3.714 7.097-9.487v-2.329h-.15c-1.643 2.267-4.056 3.806-6.947 4.426v-8.122c.16.01.322.016.488.016 3.004 0 5.333-1.953 6.084-4.582.3-.902.376-2.104.376-3.08v-5.408c0-.677-.075-1.428-.225-2.104-.827-3.004-3.005-5.032-6.16-5.032-.19 0-.378.008-.563.023v-8.557c3.978.468 6.587 2.467 8.225 5.153h.15l.375-4.432h9.916c-.15 2.404-.301 5.484-.301 10.967v20.432c0 7.073-1.427 12.857-5.633 16.538-3.457 3-8.045 4.187-12.732 4.448zm0-53.106v8.557c-3.935.322-6.949 4.034-6.949 10.417 0 5.292 2.52 9.465 6.949 9.75v8.122c-.942.202-1.934.306-2.967.306-9.09 0-15.55-7.36-15.55-17.877 0-11.868 7.587-19.38 16.676-19.38.644 0 1.257.036 1.84.105zm0 44.236v8.87c-.713.04-1.428.059-2.14.059-4.884 0-9.916-.977-13.222-2.78l2.254-8.713c2.328 1.352 6.31 2.78 10.666 2.78.85 0 1.666-.071 2.442-.216zm-122.402-6.087v-8.827a16.6 16.6 0 003.681.394c3.906 0 7.061-.526 10.14-1.577l1.503 7.737c-3.755 1.577-8.338 2.34-13.295 2.34-.694 0-1.368-.023-2.029-.067zm0-15.419v-7.812h6.76c0-2.779-1.2-7.436-6.384-7.436-.128 0-.253.003-.376.009v-7.574c.321-.014.647-.022.977-.022 11.868 0 16.375 9.239 16.375 18.328 0 1.953-.225 3.68-.375 4.507zm19.23-22.009l12.169 17.953-12.47 18.779h12.545l3.455-6.61c.901-1.803 1.878-3.606 2.78-5.634h.225c.827 1.953 1.803 3.831 2.854 5.634l3.68 6.61h12.92l-12.243-19.23 12.094-17.502h-12.394l-3.23 5.934a201.75 201.75 0 00-2.854 5.71h-.151a440.749 440.749 0 00-3.005-5.484l-3.605-6.16zm45.595-6.91v6.91h-4.882v8.413h4.882v15.024c0 5.182 1.051 8.713 3.155 10.892 1.878 1.877 4.957 3.167 8.639 3.167 3.154 0 5.934-.451 7.36-.99l-.075-8.638c-1.05.226-1.802.3-3.38.3-3.38 0-4.507-2.027-4.507-6.46v-13.295h8.188v-8.412h-8.188v-9.991zm-64.825 6.107v7.573c-4.607.221-6.468 4.501-6.76 7.427h6.76v7.812h-6.685c.285 3.594 3.04 5.758 6.685 6.592v8.827c-11.21-.75-17.577-7.795-17.577-18.648 0-9.072 5.56-19.069 17.577-19.583zm-98.851 38.231v-8.827c1.154.263 2.397.394 3.68.394 3.906 0 7.06-.526 10.141-1.577l1.502 7.737c-3.756 1.577-8.338 2.34-13.296 2.34-.692 0-1.368-.023-2.027-.067zm0-15.419v-7.812h6.76c0-2.779-1.202-7.436-6.385-7.436-.128 0-.252.004-.375.009v-7.574c.32-.014.645-.022.976-.022 11.868 0 16.375 9.239 16.375 18.328 0 1.953-.226 3.68-.376 4.507zm39.36 14.723h11.418v-21.183c0-1.051.075-2.103.375-2.854.826-2.103 2.704-4.282 5.86-4.282 4.13 0 5.783 3.23 5.783 7.963v20.356h11.418v-21.708c0-10.817-5.634-15.85-13.145-15.85-6.16 0-9.84 3.53-11.343 5.934h-.226l-.525-5.108h-9.915c.15 3.305.3 7.136.3 11.719zM69.038 157.214v6.91h-4.883v8.413h4.883v15.024c0 5.182 1.051 8.713 3.155 10.892 1.878 1.877 4.958 3.167 8.638 3.167 3.155 0 5.934-.451 7.362-.99l-.075-8.638c-1.053.226-1.804.3-3.38.3-3.381 0-4.508-2.027-4.508-6.46v-13.295h8.188v-8.412H80.23v-9.991zm85.482 6.107v7.573c-4.608.221-6.468 4.501-6.76 7.427h6.76v7.812h-6.686c.285 3.594 3.04 5.758 6.686 6.592v8.827c-11.212-.75-17.578-7.794-17.578-18.648 0-9.073 5.56-19.07 17.578-19.583zm-59.492 37.535h11.418v-21.783c0-.827.075-1.803.375-2.48.826-2.103 2.704-4.056 5.709-4.056 4.282 0 5.934 3.306 5.934 8.113v20.206h11.418v-21.408c0-11.117-5.559-16.15-12.845-16.15-2.103 0-4.207.526-5.934 1.427a12.3 12.3 0 00-4.507 3.831h-.15V147.45H95.028z"
            style="fill:var(--white);"
            />
        </svg>